<mxfile host="app.diagrams.net" agent="Mozilla/5.0 (Windows NT 10.0; Win64; x64) AppleWebKit/537.36 (KHTML, like Gecko) Chrome/131.0.0.0 Safari/537.36" version="25.0.3">
  <diagram name="Page-1" id="N--kE50WWPpQ1U1_UB8g">
    <mxGraphModel dx="1114" dy="550" grid="1" gridSize="10" guides="1" tooltips="1" connect="1" arrows="1" fold="1" page="1" pageScale="1" pageWidth="850" pageHeight="1100" math="0" shadow="0">
      <root>
        <mxCell id="0" />
        <mxCell id="1" parent="0" />
        <mxCell id="-u29XsMk3B0fSCQTi_qC-17" value="" style="rounded=0;whiteSpace=wrap;html=1;" vertex="1" parent="1">
          <mxGeometry x="70" y="11" width="710" height="699" as="geometry" />
        </mxCell>
        <mxCell id="-u29XsMk3B0fSCQTi_qC-1" value="BRYT NETWORK" style="image;aspect=fixed;html=1;points=[];align=center;fontSize=12;image=img/lib/azure2/blockchain/Azure_Blockchain_Service.svg;" vertex="1" parent="1">
          <mxGeometry x="391" y="317" width="68" height="68" as="geometry" />
        </mxCell>
        <mxCell id="-u29XsMk3B0fSCQTi_qC-3" value="Cloud Nodes" style="image;aspect=fixed;html=1;points=[];align=center;fontSize=12;image=img/lib/azure2/blockchain/ABS_Member.svg;" vertex="1" parent="1">
          <mxGeometry x="180" y="320" width="56.00000000000001" height="65" as="geometry" />
        </mxCell>
        <mxCell id="-u29XsMk3B0fSCQTi_qC-4" value="Cloud Nodes" style="image;aspect=fixed;html=1;points=[];align=center;fontSize=12;image=img/lib/azure2/blockchain/ABS_Member.svg;" vertex="1" parent="1">
          <mxGeometry x="397" y="490" width="56.00000000000001" height="65" as="geometry" />
        </mxCell>
        <mxCell id="-u29XsMk3B0fSCQTi_qC-5" value="Cloud Nodes" style="image;aspect=fixed;html=1;points=[];align=center;fontSize=12;image=img/lib/azure2/blockchain/ABS_Member.svg;" vertex="1" parent="1">
          <mxGeometry x="630" y="320" width="56.00000000000001" height="65" as="geometry" />
        </mxCell>
        <mxCell id="-u29XsMk3B0fSCQTi_qC-7" style="edgeStyle=orthogonalEdgeStyle;rounded=0;orthogonalLoop=1;jettySize=auto;html=1;" edge="1" parent="1" source="-u29XsMk3B0fSCQTi_qC-6" target="-u29XsMk3B0fSCQTi_qC-3">
          <mxGeometry relative="1" as="geometry" />
        </mxCell>
        <mxCell id="-u29XsMk3B0fSCQTi_qC-6" value="Cloud Nodes" style="image;aspect=fixed;html=1;points=[];align=center;fontSize=12;image=img/lib/azure2/blockchain/ABS_Member.svg;" vertex="1" parent="1">
          <mxGeometry x="397" y="120" width="56.00000000000001" height="65" as="geometry" />
        </mxCell>
        <mxCell id="-u29XsMk3B0fSCQTi_qC-8" style="edgeStyle=orthogonalEdgeStyle;rounded=0;orthogonalLoop=1;jettySize=auto;html=1;entryX=0.006;entryY=0.483;entryDx=0;entryDy=0;entryPerimeter=0;" edge="1" parent="1" source="-u29XsMk3B0fSCQTi_qC-3" target="-u29XsMk3B0fSCQTi_qC-4">
          <mxGeometry relative="1" as="geometry">
            <Array as="points">
              <mxPoint x="208" y="521" />
            </Array>
          </mxGeometry>
        </mxCell>
        <mxCell id="-u29XsMk3B0fSCQTi_qC-9" style="edgeStyle=orthogonalEdgeStyle;rounded=0;orthogonalLoop=1;jettySize=auto;html=1;entryX=0.518;entryY=0.919;entryDx=0;entryDy=0;entryPerimeter=0;" edge="1" parent="1" source="-u29XsMk3B0fSCQTi_qC-4" target="-u29XsMk3B0fSCQTi_qC-5">
          <mxGeometry relative="1" as="geometry" />
        </mxCell>
        <mxCell id="-u29XsMk3B0fSCQTi_qC-10" style="edgeStyle=orthogonalEdgeStyle;rounded=0;orthogonalLoop=1;jettySize=auto;html=1;entryX=1.018;entryY=0.56;entryDx=0;entryDy=0;entryPerimeter=0;" edge="1" parent="1" source="-u29XsMk3B0fSCQTi_qC-5" target="-u29XsMk3B0fSCQTi_qC-6">
          <mxGeometry relative="1" as="geometry">
            <Array as="points">
              <mxPoint x="658" y="156" />
            </Array>
          </mxGeometry>
        </mxCell>
        <mxCell id="-u29XsMk3B0fSCQTi_qC-11" value="Self Hosted Nodes" style="image;aspect=fixed;perimeter=ellipsePerimeter;html=1;align=center;shadow=0;dashed=0;spacingTop=3;image=img/lib/active_directory/generic_node.svg;" vertex="1" parent="1">
          <mxGeometry x="183" y="71" width="50" height="49" as="geometry" />
        </mxCell>
        <mxCell id="-u29XsMk3B0fSCQTi_qC-13" value="Self Hosted Nodes" style="image;aspect=fixed;perimeter=ellipsePerimeter;html=1;align=center;shadow=0;dashed=0;spacingTop=3;image=img/lib/active_directory/generic_node.svg;" vertex="1" parent="1">
          <mxGeometry x="630" y="71" width="50" height="49" as="geometry" />
        </mxCell>
        <mxCell id="-u29XsMk3B0fSCQTi_qC-14" value="Self Hosted Nodes" style="image;aspect=fixed;perimeter=ellipsePerimeter;html=1;align=center;shadow=0;dashed=0;spacingTop=3;image=img/lib/active_directory/generic_node.svg;" vertex="1" parent="1">
          <mxGeometry x="183" y="540" width="50" height="49" as="geometry" />
        </mxCell>
        <mxCell id="-u29XsMk3B0fSCQTi_qC-16" value="Self Hosted Nodes" style="image;aspect=fixed;perimeter=ellipsePerimeter;html=1;align=center;shadow=0;dashed=0;spacingTop=3;image=img/lib/active_directory/generic_node.svg;" vertex="1" parent="1">
          <mxGeometry x="633" y="540" width="50" height="49" as="geometry" />
        </mxCell>
      </root>
    </mxGraphModel>
  </diagram>
</mxfile>
